[b]Barbie: Sholeio gia prigipisses (Video 2011) 
Barbie: Princess Charm School (original title)[/b]
[b]Directors: Ezekiel Norton, Terry Klassen
Writers: Elise Allen, Kati Rocky (story)
Stars: Diana Kaarina, Morwenna Banks and Nicole Oliver[/b]
[b]General
Format : AVI
Format/Info : Audio Video Interleave
File size : 1.61 GiB
Duration : 1h 19mn
Overal bit rate : 2895 Kbps
Movie name : BARBIE CHARM SCHOOL 
Writing application : Lavf52.33.0
Video
Format : MPEG-4 Visual
Format profile : Simple@L3
Format settings, BVOP : No
Format settings, QPel : No
Format settings, GMC : 0 warppoint
Format settings, Matrix : Default
Codec ID : XVID
Codec ID/Hint : XviD
Duration : 1h 19mn
Bit rate : 2500 Kbps
Width : 720 pixels
Height : 400 pixels
Display aspect ratio : 16/9
Frame rate : 25.000 fps
Resolution : 8 bits
Colorimetry : 4:2:0
Scan type : Progressive
Bits/(Pixel*Frame) : 0.347
Stream size : 1.39 GiB
Writing library : XviD0050
Audio
Format : AC-3
Format/Info : Audio Coding 3
Codec ID : 2000
Duration : 1h 19mn
Bit rate mode : CBR
Bit rate : 384 Kbps
Channel(s) : 6 channels
Channel positions : Front: L C R, Rear: L R, LFE
Sampling rate : 48.0 KHz
Stream size : 219 MiB
[/b]